# xmcd
#
# Track frame offsets:
#	150
#	16979
#	36039
#	53705
#	70030
#	86926
#	105110
#	128387
#	149422
#	168287
#	183134
#	202434
#	221954
#	244314
#	257574
#	271605
#	287720
#	301505
#
# Disc length: 4237 seconds
#
# Revision: 1
# Processed by: cddbd v1.5.2PL0 Copyright (c) Steve Scherf et al.
# Submitted via: audiograbber 1.83.01
#
DISCID=f8108b12
DTITLE=Various Artist - The Three Soul Divas
DYEAR=1999
DGENRE=Soul
TTITLE0=Dionne Warwick - You Are A Song
TTITLE1=Dionne Warwick - Best Thing That Ever Happened To Me
TTITLE2=Dionne Warwick - In Between The Heartaches
TTITLE3=Dionne Warwick - Loving You Is Just An Old Habit
TTITLE4=Dionne Warwick - Seeing You Again
TTITLE5=Dionne Warwick - The Need To Be
TTITLE6=Gladys Knight - I Feel A Song
TTITLE7=Gladys Knight - The Last Goodbye
TTITLE8=Gladys Knight - Long Line
TTITLE9=Gladys Knight - More And More
TTITLE10=Gladys Knight - You Got It
TTITLE11=Gladys Knight - You Got My Word On That
TTITLE12=Gladys Knight - Heaven Sent You
TTITLE13=Freda Payne - Baby, You Got What It Takes
TTITLE14=Freda Payne - I Get High
TTITLE15=Freda Payne - Bring Back The Joy
TTITLE16=Freda Payne - I Can;t Live On A Memory
TTITLE17=Freda Payne - Trusting In You
EXTD=
EXTT0=
EXTT1=
EXTT2=
EXTT3=
EXTT4=
EXTT5=
EXTT6=
EXTT7=
EXTT8=
EXTT9=
EXTT10=
EXTT11=
EXTT12=
EXTT13=
EXTT14=
EXTT15=
EXTT16=
EXTT17=
PLAYORDER=
